<svg xmlns="http://www.w3.org/2000/svg" viewBox="0 0 512 512" role="img" aria-label="Frigate">
  <rect width="512" height="512" rx="96" fill="#1a1a1b"/>
  <path fill="#00CD98" d="M256 96c-61.9 0-112 50.1-112 112v48c0 61.9 50.1 112 112 112s112-50.1 112-112v-48C368 146.1 317.9 96 256 96zm0 48c35.3 0 64 28.7 64 64v48c0 35.3-28.7 64-64 64s-64-28.7-64-64v-48c0-35.3 28.7-64 64-64z"/>
  <path fill="#5351FB" d="M160 320h192v32c0 35.3-28.7 64-64 64h-64c-35.3 0-64-28.7-64-64v-32z"/>
  <rect x="224" y="384" width="64" height="32" rx="8" fill="#00CD98"/>
</svg>
